<?xml version="1.0" encoding="utf-8"?>
<svg viewBox="58.879 133.459 379.101 138.091" xmlns="http://www.w3.org/2000/svg">
  <rect x="59.823" y="131.276" width="377.61" height="139.739" style="stroke: rgba(0, 0, 0, 0); fill: rgb(255, 255, 255);"/>
  <path d="M 97.21980177001953 229.69900512695312 L 97.21980177001953 139.41400512695313 L 123.88860177001953 139.41400512695313 Q 137.63970177001954 139.41400512695313 148.12665177001952 143.92825512695313 Q 158.61360177001953 148.4425051269531 164.44740177001952 158.30440512695313 Q 170.28120177001955 168.16630512695312 170.28120177001955 184.13980512695312 Q 170.28120177001955 200.11330512695312 164.44740177001952 210.18355512695314 Q 158.61360177001953 220.25380512695313 148.47390177001952 224.97640512695313 Q 138.33420177001955 229.69900512695312 125.27760177001953 229.69900512695312 Z M 121.11060177001953 210.5308051269531 L 122.49960177001952 210.5308051269531 Q 129.02790177001953 210.5308051269531 134.30610177001952 208.30840512695312 Q 139.58430177001952 206.08600512695313 142.70955177001952 200.39110512695314 Q 145.83480177001954 194.69620512695312 145.83480177001954 184.13980512695312 Q 145.83480177001954 173.58340512695312 142.70955177001952 168.09685512695313 Q 139.58430177001952 162.6103051269531 134.30610177001952 160.5962551269531 Q 129.02790177001953 158.5822051269531 122.49960177001952 158.5822051269531 L 121.11060177001953 158.5822051269531 Z M 225.55708986816407 231.36580512695312 Q 214.02838986816406 231.36580512695312 204.23593986816405 226.29595512695312 Q 194.44348986816405 221.22610512695312 188.47078986816405 210.94750512695313 Q 182.49808986816407 200.66890512695312 182.49808986816407 185.25100512695312 Q 182.49808986816407 173.8612051269531 186.04003986816406 165.04105512695313 Q 189.58198986816407 156.22090512695314 195.76303986816407 150.10930512695313 Q 201.94408986816407 143.99770512695312 209.79193986816406 140.87245512695313 Q 217.63978986816406 137.74720512695313 226.11268986816407 137.74720512695313 Q 235.14118986816408 137.74720512695313 242.29453986816407 141.28915512695312 Q 249.44788986816405 144.83110512695313 254.17048986816405 149.69260512695314 L 241.66948986816408 164.97160512695314 Q 238.33588986816406 162.05470512695314 234.79393986816405 160.17955512695312 Q 231.25198986816406 158.30440512695313 226.66828986816407 158.30440512695313 Q 221.39008986816407 158.30440512695313 216.87583986816406 161.42965512695312 Q 212.36158986816406 164.55490512695314 209.65303986816406 170.38870512695314 Q 206.94448986816406 176.22250512695314 206.94448986816406 184.41760512695313 Q 206.94448986816406 197.05750512695312 212.29213986816407 203.93305512695312 Q 217.63978986816406 210.80860512695313 226.39048986816405 210.80860512695313 Q 231.66868986816405 210.80860512695313 235.76623986816406 208.44730512695313 Q 239.86378986816408 206.08600512695313 242.78068986816407 203.03020512695312 L 255.28168986816405 218.03140512695313 Q 249.58678986816406 224.6986051269531 241.94728986816406 228.03220512695313 Q 234.30778986816406 231.36580512695312 225.55708986816407 231.36580512695312 Z M 295.2865998535156 231.36580512695312 Q 280.7020998535156 231.36580512695312 271.60414985351565 219.62875512695314 Q 262.5061998535156 207.89170512695313 262.5061998535156 185.25100512695312 Q 262.5061998535156 162.6103051269531 271.60414985351565 151.28995512695315 Q 280.7020998535156 139.96960512695313 295.2865998535156 139.96960512695313 Q 309.8710998535156 139.96960512695313 318.9690498535156 151.3594051269531 Q 328.06699985351565 162.74920512695314 328.06699985351565 185.25100512695312 Q 328.06699985351565 207.89170512695313 318.9690498535156 219.62875512695314 Q 309.8710998535156 231.36580512695312 295.2865998535156 231.36580512695312 Z M 295.2865998535156 213.03100512695312 Q 298.06459985351563 213.03100512695312 300.4258998535156 210.94750512695313 Q 302.78719985351563 208.86400512695312 304.17619985351564 202.8913051269531 Q 305.56519985351565 196.91860512695314 305.56519985351565 185.25100512695312 Q 305.56519985351565 173.58340512695312 304.17619985351564 167.81905512695312 Q 302.78719985351563 162.05470512695314 300.4258998535156 160.17955512695312 Q 298.06459985351563 158.30440512695313 295.2865998535156 158.30440512695313 Q 292.50859985351565 158.30440512695313 290.1472998535156 160.17955512695312 Q 287.78599985351565 162.05470512695314 286.39699985351564 167.81905512695312 Q 285.0079998535156 173.58340512695312 285.0079998535156 185.25100512695312 Q 285.0079998535156 196.91860512695314 286.39699985351564 202.8913051269531 Q 287.78599985351565 208.86400512695312 290.1472998535156 210.94750512695313 Q 292.50859985351565 213.03100512695312 295.2865998535156 213.03100512695312 Z M 341.95569956054686 229.69900512695312 L 341.95569956054686 210.5308051269531 L 360.84609956054686 210.5308051269531 L 360.84609956054686 164.97160512695314 L 344.17809956054685 164.97160512695314 L 344.17809956054685 150.2482051269531 Q 351.6786995605469 148.72030512695312 356.95689956054684 146.70625512695312 Q 362.23509956054687 144.69220512695313 367.2354995605469 141.63640512695312 L 384.7368995605469 141.63640512695312 L 384.7368995605469 210.5308051269531 L 400.57149956054684 210.5308051269531 L 400.57149956054684 229.69900512695312 Z" transform="matrix(1, 0, 0, 1, 0, 0)" style="fill: rgb(6, 6, 6); white-space: pre;"/>
  <path d="M 96.77499835205079 260.4559631347656 L 96.77499835205079 248.45116313476564 L 99.77619835205078 248.45116313476564 Q 102.55779835205078 248.45116313476564 104.00349835205078 249.99751313476563 Q 105.44919835205079 251.54386313476562 105.44919835205079 254.39866313476563 Q 105.44919835205079 257.27176313476565 104.01264835205077 258.8638631347656 Q 102.57609835205078 260.4559631347656 99.84939835205078 260.4559631347656 Z M 98.29389835205077 259.21156313476564 L 99.66639835205078 259.21156313476564 Q 101.77089835205078 259.21156313476564 102.82314835205078 257.9397131347656 Q 103.87539835205078 256.66786313476564 103.87539835205078 254.39866313476563 Q 103.87539835205078 252.12946313476561 102.82314835205078 250.91251313476562 Q 101.77089835205078 249.69556313476562 99.66639835205078 249.69556313476562 L 98.29389835205077 249.69556313476562 Z M 107.86509432373047 260.4559631347656 L 107.86509432373047 251.56216313476563 L 109.36569432373047 251.56216313476563 L 109.36569432373047 260.4559631347656 Z M 108.63369432373047 249.7321631347656 Q 108.19449432373047 249.7321631347656 107.91084432373047 249.46681313476563 Q 107.62719432373046 249.20146313476562 107.62719432373046 248.74396313476564 Q 107.62719432373046 248.30476313476564 107.91084432373047 248.03026313476562 Q 108.19449432373047 247.75576313476563 108.63369432373047 247.75576313476563 Q 109.07289432373047 247.75576313476563 109.35654432373047 248.03026313476562 Q 109.64019432373047 248.30476313476564 109.64019432373047 248.74396313476564 Q 109.64019432373047 249.20146313476562 109.35654432373047 249.46681313476563 Q 109.07289432373047 249.7321631347656 108.63369432373047 249.7321631347656 Z M 114.28971474609375 260.4559631347656 L 111.08721474609375 251.56216313476563 L 112.64271474609374 251.56216313476563 L 114.32631474609374 256.6129631347656 Q 114.52761474609375 257.27176313476565 114.73806474609376 257.93056313476563 Q 114.94851474609375 258.5893631347656 115.14981474609375 259.22986313476565 L 115.22301474609375 259.22986313476565 Q 115.42431474609376 258.5893631347656 115.63476474609375 257.93056313476563 Q 115.84521474609375 257.27176313476565 116.02821474609375 256.6129631347656 L 117.71181474609375 251.56216313476563 L 119.19411474609375 251.56216313476563 L 116.04651474609375 260.4559631347656 Z M 120.91988863525391 260.4559631347656 L 120.91988863525391 251.56216313476563 L 122.4204886352539 251.56216313476563 L 122.4204886352539 260.4559631347656 Z M 121.6884886352539 249.7321631347656 Q 121.2492886352539 249.7321631347656 120.96563863525391 249.46681313476563 Q 120.6819886352539 249.20146313476562 120.6819886352539 248.74396313476564 Q 120.6819886352539 248.30476313476564 120.96563863525391 248.03026313476562 Q 121.2492886352539 247.75576313476563 121.6884886352539 247.75576313476563 Q 122.1276886352539 247.75576313476563 122.41133863525391 248.03026313476562 Q 122.6949886352539 248.30476313476564 122.6949886352539 248.74396313476564 Q 122.6949886352539 249.20146313476562 122.41133863525391 249.46681313476563 Q 122.1276886352539 249.7321631347656 121.6884886352539 249.7321631347656 Z M 128.20871075439453 260.67556313476564 Q 126.78131075439453 260.67556313476564 126.22316075439453 259.8520631347656 Q 125.66501075439453 259.02856313476565 125.66501075439453 257.7109631347656 L 125.66501075439453 252.78826313476563 L 124.34741075439453 252.78826313476563 L 124.34741075439453 251.65366313476562 L 125.73821075439453 251.56216313476563 L 125.92121075439454 249.07336313476563 L 127.18391075439453 249.07336313476563 L 127.18391075439453 251.56216313476563 L 129.58121075439453 251.56216313476563 L 129.58121075439453 252.78826313476563 L 127.18391075439453 252.78826313476563 L 127.18391075439453 257.72926313476563 Q 127.18391075439453 258.5527631347656 127.48586075439454 259.0011131347656 Q 127.78781075439453 259.4494631347656 128.55641075439453 259.4494631347656 Q 128.79431075439453 259.4494631347656 129.06881075439452 259.36711313476565 Q 129.34331075439454 259.2847631347656 129.56291075439452 259.21156313476564 L 129.85571075439452 260.3461631347656 Q 129.48971075439454 260.47426313476564 129.05966075439454 260.5749131347656 Q 128.62961075439452 260.67556313476564 128.20871075439453 260.67556313476564 Z M 131.60237612304687 260.4559631347656 L 131.60237612304687 251.56216313476563 L 133.1029761230469 251.56216313476563 L 133.1029761230469 260.4559631347656 Z M 132.3709761230469 249.7321631347656 Q 131.9317761230469 249.7321631347656 131.64812612304686 249.46681313476563 Q 131.36447612304687 249.20146313476562 131.36447612304687 248.74396313476564 Q 131.36447612304687 248.30476313476564 131.64812612304686 248.03026313476562 Q 131.9317761230469 247.75576313476563 132.3709761230469 247.75576313476563 Q 132.8101761230469 247.75576313476563 133.09382612304688 248.03026313476562 Q 133.37747612304688 248.30476313476564 133.37747612304688 248.74396313476564 Q 133.37747612304688 249.20146313476562 133.09382612304688 249.46681313476563 Q 132.8101761230469 249.7321631347656 132.3709761230469 249.7321631347656 Z M 138.6898982421875 260.67556313476564 Q 137.2807982421875 260.67556313476564 136.6219982421875 259.7880131347656 Q 135.9631982421875 258.90046313476563 135.9631982421875 257.1985631347656 L 135.9631982421875 251.56216313476563 L 137.4820982421875 251.56216313476563 L 137.4820982421875 256.9972631347656 Q 137.4820982421875 258.24166313476564 137.8755482421875 258.80896313476563 Q 138.2689982421875 259.3762631347656 139.1473982421875 259.3762631347656 Q 139.8427982421875 259.3762631347656 140.38264824218749 259.0194131347656 Q 140.9224982421875 258.6625631347656 141.5446982421875 257.8756631347656 L 141.5446982421875 251.56216313476563 L 143.0452982421875 251.56216313476563 L 143.0452982421875 260.4559631347656 L 141.8008982421875 260.4559631347656 L 141.6727982421875 259.0651631347656 L 141.6178982421875 259.0651631347656 Q 140.9956982421875 259.79716313476564 140.3002982421875 260.2363631347656 Q 139.6048982421875 260.67556313476564 138.6898982421875 260.67556313476564 Z M 146.0493060546875 260.4559631347656 L 146.0493060546875 251.56216313476563 L 147.2937060546875 251.56216313476563 L 147.4218060546875 252.84316313476563 L 147.4767060546875 252.84316313476563 Q 148.0623060546875 252.20266313476563 148.7577060546875 251.77261313476563 Q 149.4531060546875 251.3425631347656 150.2400060546875 251.3425631347656 Q 151.2648060546875 251.3425631347656 151.8412560546875 251.79091313476562 Q 152.4177060546875 252.23926313476562 152.6922060546875 253.04446313476564 Q 153.3876060546875 252.29416313476563 154.1013060546875 251.81836313476563 Q 154.8150060546875 251.3425631347656 155.62020605468751 251.3425631347656 Q 156.9927060546875 251.3425631347656 157.6606560546875 252.23011313476562 Q 158.3286060546875 253.11766313476562 158.3286060546875 254.81956313476562 L 158.3286060546875 260.4559631347656 L 156.8280060546875 260.4559631347656 L 156.8280060546875 255.02086313476562 Q 156.8280060546875 253.77646313476563 156.4254060546875 253.20916313476562 Q 156.0228060546875 252.64186313476563 155.1810060546875 252.64186313476563 Q 154.1928060546875 252.64186313476563 152.9484060546875 254.01436313476563 L 152.9484060546875 260.4559631347656 L 151.4478060546875 260.4559631347656 L 151.4478060546875 255.02086313476562 Q 151.4478060546875 253.77646313476563 151.0452060546875 253.20916313476562 Q 150.6426060546875 252.64186313476563 149.7825060546875 252.64186313476563 Q 148.7943060546875 252.64186313476563 147.5499060546875 254.01436313476563 L 147.5499060546875 260.4559631347656 Z" transform="matrix(1, 0, 0, 1, 0, 0)" style="fill: rgb(6, 6, 6); white-space: pre;"/>
  <path d="M 201.0324001220703 262.40261391601564 Q 199.5318001220703 262.40261391601564 198.3514501220703 261.66146391601563 Q 197.1711001220703 260.92031391601563 196.4848501220703 259.5295139160156 Q 195.79860012207033 258.1387139160156 195.79860012207033 256.1806139160156 Q 195.79860012207033 254.2408139160156 196.4940001220703 252.85001391601563 Q 197.1894001220703 251.4592139160156 198.3972001220703 250.70891391601563 Q 199.60500012207032 249.95861391601562 201.12390012207032 249.95861391601562 Q 202.2219001220703 249.95861391601562 203.06370012207032 250.40696391601563 Q 203.90550012207032 250.85531391601563 204.4179001220703 251.44091391601563 L 203.5944001220703 252.42911391601564 Q 203.11860012207032 251.91671391601562 202.5147001220703 251.6056139160156 Q 201.91080012207033 251.29451391601563 201.1422001220703 251.29451391601563 Q 200.0076001220703 251.29451391601563 199.15665012207032 251.88926391601564 Q 198.3057001220703 252.4840139160156 197.83905012207032 253.56371391601562 Q 197.3724001220703 254.64341391601562 197.3724001220703 256.14401391601564 Q 197.3724001220703 257.6446139160156 197.8299001220703 258.75176391601565 Q 198.28740012207032 259.85891391601564 199.12005012207032 260.46281391601565 Q 199.95270012207033 261.0667139160156 201.0873001220703 261.0667139160156 Q 201.94740012207032 261.0667139160156 202.62450012207032 260.7007139160156 Q 203.3016001220703 260.33471391601563 203.8689001220703 259.7125139160156 L 204.7107001220703 260.66411391601565 Q 203.99700012207032 261.4876139160156 203.1003001220703 261.9451139160156 Q 202.20360012207033 262.40261391601564 201.0324001220703 262.40261391601564 Z M 206.78859438476562 262.1830139160156 L 206.78859438476562 249.15341391601564 L 208.28919438476564 249.15341391601564 L 208.28919438476564 252.70361391601563 L 208.23429438476563 254.5336139160156 Q 208.87479438476564 253.92971391601563 209.57934438476562 253.49966391601563 Q 210.28389438476563 253.0696139160156 211.19889438476562 253.0696139160156 Q 212.60799438476562 253.0696139160156 213.25764438476563 253.95716391601562 Q 213.90729438476563 254.84471391601562 213.90729438476563 256.54661391601564 L 213.90729438476563 262.1830139160156 L 212.40669438476561 262.1830139160156 L 212.40669438476561 256.74791391601565 Q 212.40669438476561 255.50351391601563 212.00409438476564 254.93621391601562 Q 211.60149438476563 254.36891391601563 210.72309438476563 254.36891391601563 Q 210.04599438476563 254.36891391601563 209.50614438476563 254.71661391601563 Q 208.96629438476563 255.06431391601564 208.28919438476564 255.74141391601563 L 208.28919438476564 262.1830139160156 Z M 218.78199626464843 262.40261391601564 Q 217.66569626464843 262.40261391601564 216.92454626464843 261.7346639160156 Q 216.18339626464845 261.0667139160156 216.18339626464845 259.87721391601565 Q 216.18339626464845 258.41321391601565 217.49184626464844 257.6354639160156 Q 218.80029626464844 256.8577139160156 221.63679626464844 256.54661391601564 Q 221.63679626464844 255.97931391601563 221.48124626464843 255.4669139160156 Q 221.32569626464843 254.95451391601563 220.93224626464843 254.6342639160156 Q 220.53879626464843 254.31401391601563 219.80679626464843 254.31401391601563 Q 219.03819626464843 254.31401391601563 218.36109626464844 254.60681391601562 Q 217.68399626464844 254.89961391601562 217.15329626464845 255.26561391601564 L 216.56769626464845 254.22251391601563 Q 217.18989626464844 253.81991391601562 218.09574626464843 253.44476391601563 Q 219.00159626464844 253.0696139160156 220.06299626464843 253.0696139160156 Q 221.69169626464844 253.0696139160156 222.42369626464844 254.06696391601562 Q 223.15569626464844 255.06431391601564 223.15569626464844 256.72961391601564 L 223.15569626464844 262.1830139160156 L 221.91129626464843 262.1830139160156 L 221.78319626464844 261.12161391601563 L 221.72829626464843 261.12161391601563 Q 221.10609626464844 261.63401391601565 220.36494626464844 262.01831391601564 Q 219.62379626464843 262.40261391601564 218.78199626464843 262.40261391601564 Z M 219.22119626464843 261.1948139160156 Q 219.86169626464843 261.1948139160156 220.42899626464845 260.8837139160156 Q 220.99629626464844 260.5726139160156 221.63679626464844 260.0053139160156 L 221.63679626464844 257.53481391601565 Q 219.42249626464843 257.80931391601564 218.53494626464843 258.3583139160156 Q 217.64739626464845 258.90731391601565 217.64739626464845 259.76741391601564 Q 217.64739626464845 260.5177139160156 218.10489626464843 260.8562639160156 Q 218.56239626464844 261.1948139160156 219.22119626464843 261.1948139160156 Z M 225.95171083984374 262.1830139160156 L 225.95171083984374 253.28921391601563 L 227.45231083984376 253.28921391601563 L 227.45231083984376 262.1830139160156 Z M 226.72031083984376 251.4592139160156 Q 226.28111083984376 251.4592139160156 225.99746083984374 251.19386391601563 Q 225.71381083984375 250.92851391601562 225.71381083984375 250.47101391601564 Q 225.71381083984375 250.03181391601564 225.99746083984374 249.75731391601562 Q 226.28111083984376 249.48281391601563 226.72031083984376 249.48281391601563 Q 227.15951083984376 249.48281391601563 227.44316083984376 249.75731391601562 Q 227.72681083984375 250.03181391601564 227.72681083984375 250.47101391601564 Q 227.72681083984375 250.92851391601562 227.44316083984376 251.19386391601563 Q 227.15951083984376 251.4592139160156 226.72031083984376 251.4592139160156 Z M 230.45483889160155 262.1830139160156 L 230.45483889160155 253.28921391601563 L 231.69923889160157 253.28921391601563 L 231.82733889160156 254.89961391601562 L 231.88223889160156 254.89961391601562 Q 232.33973889160157 254.05781391601562 232.99853889160156 253.56371391601562 Q 233.65733889160157 253.0696139160156 234.40763889160155 253.0696139160156 Q 234.93833889160157 253.0696139160156 235.35923889160156 253.25261391601563 L 235.06643889160156 254.57021391601563 Q 234.84683889160155 254.49701391601562 234.66383889160156 254.46041391601563 Q 234.48083889160156 254.42381391601563 234.20633889160158 254.42381391601563 Q 233.63903889160156 254.42381391601563 233.02598889160157 254.8813139160156 Q 232.41293889160156 255.33881391601562 231.95543889160157 256.4734139160156 L 231.95543889160157 262.1830139160156 Z" transform="matrix(1, 0, 0, 1, 0, 0)" style="fill: rgb(6, 6, 6); white-space: pre;"/>
  <path d="M 274.2456953613281 262.40261391601564 Q 272.4888953613281 262.40261391601564 271.4915453613281 260.8196639160156 Q 270.49419536132814 259.2367139160156 270.49419536132814 256.3087139160156 Q 270.49419536132814 253.3624139160156 271.4915453613281 251.82521391601563 Q 272.4888953613281 250.28801391601561 274.2456953613281 250.28801391601561 Q 275.98419536132815 250.28801391601561 276.98154536132813 251.82521391601563 Q 277.9788953613281 253.3624139160156 277.9788953613281 256.3087139160156 Q 277.9788953613281 259.2367139160156 276.98154536132813 260.8196639160156 Q 275.98419536132815 262.40261391601564 274.2456953613281 262.40261391601564 Z M 274.2456953613281 261.1948139160156 Q 275.27049536132813 261.1948139160156 275.89269536132815 260.0327639160156 Q 276.5148953613281 258.87071391601563 276.5148953613281 256.3087139160156 Q 276.5148953613281 253.74671391601564 275.89269536132815 252.62126391601564 Q 275.27049536132813 251.49581391601563 274.2456953613281 251.49581391601563 Q 273.22089536132813 251.49581391601563 272.58954536132813 252.62126391601564 Q 271.95819536132814 253.74671391601564 271.95819536132814 256.3087139160156 Q 271.95819536132814 258.87071391601563 272.58954536132813 260.0327639160156 Q 273.22089536132813 261.1948139160156 274.2456953613281 261.1948139160156 Z M 280.2119658691406 262.1830139160156 L 280.2119658691406 260.93861391601564 L 282.88376586914063 260.93861391601564 L 282.88376586914063 252.3376139160156 L 280.76096586914065 252.3376139160156 L 280.76096586914065 251.36771391601562 Q 281.5661658691406 251.22131391601562 282.16091586914064 251.01086391601564 Q 282.7556658691406 250.80041391601563 283.2314658691406 250.50761391601563 L 284.38436586914065 250.50761391601563 L 284.38436586914065 260.93861391601564 L 286.79996586914064 260.93861391601564 L 286.79996586914064 262.1830139160156 Z M 297.70813559570314 262.40261391601564 Q 296.2075355957031 262.40261391601564 295.02718559570314 261.66146391601563 Q 293.8468355957031 260.92031391601563 293.16058559570314 259.5295139160156 Q 292.4743355957031 258.1387139160156 292.4743355957031 256.1806139160156 Q 292.4743355957031 254.2408139160156 293.1697355957031 252.85001391601563 Q 293.8651355957031 251.4592139160156 295.07293559570314 250.70891391601563 Q 296.2807355957031 249.95861391601562 297.79963559570314 249.95861391601562 Q 298.89763559570315 249.95861391601562 299.7394355957031 250.40696391601563 Q 300.5812355957031 250.85531391601563 301.0936355957031 251.44091391601563 L 300.27013559570315 252.42911391601564 Q 299.7943355957031 251.91671391601562 299.19043559570315 251.6056139160156 Q 298.58653559570314 251.29451391601563 297.81793559570315 251.29451391601563 Q 296.6833355957031 251.29451391601563 295.8323855957031 251.88926391601564 Q 294.98143559570315 252.4840139160156 294.51478559570313 253.56371391601562 Q 294.0481355957031 254.64341391601562 294.0481355957031 256.14401391601564 Q 294.0481355957031 257.6446139160156 294.5056355957031 258.75176391601565 Q 294.96313559570314 259.85891391601564 295.79578559570314 260.46281391601565 Q 296.62843559570314 261.0667139160156 297.7630355957031 261.0667139160156 Q 298.6231355957031 261.0667139160156 299.3002355957031 260.7007139160156 Q 299.97733559570315 260.33471391601563 300.54463559570314 259.7125139160156 L 301.3864355957031 260.66411391601565 Q 300.6727355957031 261.4876139160156 299.77603559570315 261.9451139160156 Q 298.87933559570314 262.40261391601564 297.70813559570314 262.40261391601564 Z M 306.92301459960936 262.40261391601564 Q 305.84331459960936 262.40261391601564 304.90086459960935 261.8536139160156 Q 303.9584145996094 261.3046139160156 303.3819645996094 260.26151391601564 Q 302.80551459960935 259.2184139160156 302.80551459960935 257.7544139160156 Q 302.80551459960935 256.25381391601564 303.3819645996094 255.21071391601564 Q 303.9584145996094 254.16761391601563 304.90086459960935 253.61861391601562 Q 305.84331459960936 253.0696139160156 306.92301459960936 253.0696139160156 Q 308.0210145996094 253.0696139160156 308.95431459960935 253.61861391601562 Q 309.8876145996094 254.16761391601563 310.4640645996094 255.21071391601564 Q 311.04051459960937 256.25381391601564 311.04051459960937 257.7544139160156 Q 311.04051459960937 259.2184139160156 310.4640645996094 260.26151391601564 Q 309.8876145996094 261.3046139160156 308.95431459960935 261.8536139160156 Q 308.0210145996094 262.40261391601564 306.92301459960936 262.40261391601564 Z M 306.92301459960936 261.1582139160156 Q 308.07591459960935 261.1582139160156 308.7804645996094 260.21576391601565 Q 309.48501459960937 259.27331391601564 309.48501459960937 257.7544139160156 Q 309.48501459960937 256.2172139160156 308.7804645996094 255.26561391601564 Q 308.07591459960935 254.31401391601563 306.92301459960936 254.31401391601563 Q 305.7884145996094 254.31401391601563 305.07471459960936 255.26561391601564 Q 304.36101459960935 256.2172139160156 304.36101459960935 257.7544139160156 Q 304.36101459960935 259.27331391601564 305.07471459960936 260.21576391601565 Q 305.7884145996094 261.1582139160156 306.92301459960936 261.1582139160156 Z M 314.97181987304685 262.40261391601564 Q 314.1300198730469 262.40261391601564 313.75486987304686 261.88106391601565 Q 313.3797198730469 261.3595139160156 313.3797198730469 260.3896139160156 L 313.3797198730469 249.15341391601564 L 314.88031987304686 249.15341391601564 L 314.88031987304686 260.4994139160156 Q 314.88031987304686 260.84711391601564 315.0084198730469 261.00266391601565 Q 315.1365198730469 261.1582139160156 315.3012198730469 261.1582139160156 Q 315.37441987304686 261.1582139160156 315.43846987304687 261.1490639160156 Q 315.5025198730469 261.13991391601564 315.6306198730469 261.12161391601563 L 315.8319198730469 262.2562139160156 Q 315.68551987304687 262.32941391601565 315.48421987304687 262.3660139160156 Q 315.28291987304686 262.40261391601564 314.97181987304685 262.40261391601564 Z M 319.64540385742185 262.40261391601564 Q 318.8036038574219 262.40261391601564 318.42845385742186 261.88106391601565 Q 318.0533038574219 261.3595139160156 318.0533038574219 260.3896139160156 L 318.0533038574219 249.15341391601564 L 319.55390385742186 249.15341391601564 L 319.55390385742186 260.4994139160156 Q 319.55390385742186 260.84711391601564 319.6820038574219 261.00266391601565 Q 319.8101038574219 261.1582139160156 319.9748038574219 261.1582139160156 Q 320.04800385742186 261.1582139160156 320.11205385742187 261.1490639160156 Q 320.1761038574219 261.13991391601564 320.3042038574219 261.12161391601563 L 320.5055038574219 262.2562139160156 Q 320.35910385742187 262.32941391601565 320.15780385742187 262.3660139160156 Q 319.95650385742186 262.40261391601564 319.64540385742185 262.40261391601564 Z M 326.31776665039064 262.40261391601564 Q 325.12826665039063 262.40261391601564 324.15836665039063 261.8444639160156 Q 323.18846665039064 261.2863139160156 322.62116665039065 260.24321391601563 Q 322.0538666503906 259.20011391601565 322.0538666503906 257.7544139160156 Q 322.0538666503906 256.2904139160156 322.6303166503906 255.24731391601563 Q 323.20676665039065 254.20421391601562 324.1217666503906 253.63691391601563 Q 325.03676665039063 253.0696139160156 326.04326665039065 253.0696139160156 Q 327.7451666503906 253.0696139160156 328.6693166503906 254.20421391601562 Q 329.5934666503906 255.33881391601562 329.5934666503906 257.24201391601565 Q 329.5934666503906 257.4799139160156 329.58431665039063 257.7086639160156 Q 329.5751666503906 257.9374139160156 329.53856665039064 258.10211391601564 L 323.5361666503906 258.10211391601564 Q 323.6276666503906 259.5112139160156 324.42371665039065 260.35301391601564 Q 325.2197666503906 261.1948139160156 326.50076665039063 261.1948139160156 Q 327.1412666503906 261.1948139160156 327.6811166503906 261.00266391601565 Q 328.2209666503906 260.8105139160156 328.7150666503906 260.4994139160156 L 329.24576665039064 261.4876139160156 Q 328.67846665039065 261.8536139160156 327.95561665039065 262.12811391601565 Q 327.2327666503906 262.40261391601564 326.31776665039064 262.40261391601564 Z M 323.5178666503906 257.02241391601564 L 328.27586665039064 257.02241391601564 Q 328.27586665039064 255.66821391601562 327.6994166503906 254.96366391601563 Q 327.12296665039065 254.25911391601562 326.0798666503906 254.25911391601562 Q 325.14656665039064 254.25911391601562 324.40541665039063 254.98196391601562 Q 323.66426665039063 255.70481391601564 323.5178666503906 257.02241391601564 Z M 335.30353715820314 262.40261391601564 Q 334.13233715820314 262.40261391601564 333.1807371582031 261.8536139160156 Q 332.2291371582031 261.3046139160156 331.68013715820314 260.26151391601564 Q 331.1311371582031 259.2184139160156 331.1311371582031 257.7544139160156 Q 331.1311371582031 256.25381391601564 331.72588715820314 255.21071391601564 Q 332.3206371582031 254.16761391601563 333.29968715820314 253.61861391601562 Q 334.2787371582031 253.0696139160156 335.41333715820315 253.0696139160156 Q 336.29173715820315 253.0696139160156 336.92308715820315 253.38071391601562 Q 337.55443715820314 253.69181391601563 338.0119371582031 254.11271391601562 L 337.24333715820313 255.10091391601563 Q 336.85903715820314 254.75321391601562 336.42898715820314 254.5336139160156 Q 335.99893715820315 254.31401391601563 335.4682371582031 254.31401391601563 Q 334.6630371582031 254.31401391601563 334.0316871582031 254.74406391601562 Q 333.4003371582031 255.1741139160156 333.0434871582031 255.9518639160156 Q 332.6866371582031 256.72961391601564 332.6866371582031 257.7544139160156 Q 332.6866371582031 259.27331391601564 333.4460871582031 260.21576391601565 Q 334.20553715820313 261.1582139160156 335.4316371582031 261.1582139160156 Q 336.0538371582031 261.1582139160156 336.58453715820315 260.89286391601564 Q 337.1152371582031 260.62751391601563 337.5178371582031 260.26151391601564 L 338.1766371582031 261.2680139160156 Q 337.57273715820315 261.79871391601563 336.8407371582031 262.1006639160156 Q 336.1087371582031 262.40261391601564 335.30353715820314 262.40261391601564 Z M 342.7437678222656 262.40261391601564 Q 341.31636782226565 262.40261391601564 340.75821782226564 261.5791139160156 Q 340.2000678222656 260.75561391601565 340.2000678222656 259.4380139160156 L 340.2000678222656 254.51531391601563 L 338.88246782226565 254.51531391601563 L 338.88246782226565 253.38071391601562 L 340.2732678222656 253.28921391601563 L 340.4562678222656 250.80041391601563 L 341.7189678222656 250.80041391601563 L 341.7189678222656 253.28921391601563 L 344.1162678222656 253.28921391601563 L 344.1162678222656 254.51531391601563 L 341.7189678222656 254.51531391601563 L 341.7189678222656 259.45631391601563 Q 341.7189678222656 260.2798139160156 342.02091782226563 260.7281639160156 Q 342.3228678222656 261.1765139160156 343.0914678222656 261.1765139160156 Q 343.3293678222656 261.1765139160156 343.6038678222656 261.09416391601565 Q 343.8783678222656 261.0118139160156 344.0979678222656 260.93861391601564 L 344.3907678222656 262.0732139160156 Q 344.02476782226563 262.20131391601564 343.59471782226564 262.3019639160156 Q 343.16466782226564 262.40261391601564 342.7437678222656 262.40261391601564 Z M 346.12321962890627 262.1830139160156 L 346.12321962890627 253.28921391601563 L 347.62381962890623 253.28921391601563 L 347.62381962890623 262.1830139160156 Z M 346.89181962890626 251.4592139160156 Q 346.45261962890623 251.4592139160156 346.16896962890627 251.19386391601563 Q 345.88531962890625 250.92851391601562 345.88531962890625 250.47101391601564 Q 345.88531962890625 250.03181391601564 346.16896962890627 249.75731391601562 Q 346.45261962890623 249.48281391601563 346.89181962890626 249.48281391601563 Q 347.33101962890623 249.48281391601563 347.61466962890626 249.75731391601562 Q 347.8983196289062 250.03181391601564 347.8983196289062 250.47101391601564 Q 347.8983196289062 250.92851391601562 347.61466962890626 251.19386391601563 Q 347.33101962890623 251.4592139160156 346.89181962890626 251.4592139160156 Z M 354.0850629394531 262.40261391601564 Q 353.0053629394531 262.40261391601564 352.0629129394531 261.8536139160156 Q 351.12046293945315 261.3046139160156 350.5440129394531 260.26151391601564 Q 349.9675629394531 259.2184139160156 349.9675629394531 257.7544139160156 Q 349.9675629394531 256.25381391601564 350.5440129394531 255.21071391601564 Q 351.12046293945315 254.16761391601563 352.0629129394531 253.61861391601562 Q 353.0053629394531 253.0696139160156 354.0850629394531 253.0696139160156 Q 355.1830629394531 253.0696139160156 356.1163629394531 253.61861391601562 Q 357.0496629394531 254.16761391601563 357.62611293945315 255.21071391601564 Q 358.2025629394531 256.25381391601564 358.2025629394531 257.7544139160156 Q 358.2025629394531 259.2184139160156 357.62611293945315 260.26151391601564 Q 357.0496629394531 261.3046139160156 356.1163629394531 261.8536139160156 Q 355.1830629394531 262.40261391601564 354.0850629394531 262.40261391601564 Z M 354.0850629394531 261.1582139160156 Q 355.2379629394531 261.1582139160156 355.94251293945314 260.21576391601565 Q 356.6470629394531 259.27331391601564 356.6470629394531 257.7544139160156 Q 356.6470629394531 256.2172139160156 355.94251293945314 255.26561391601564 Q 355.2379629394531 254.31401391601563 354.0850629394531 254.31401391601563 Q 352.95046293945313 254.31401391601563 352.2367629394531 255.26561391601564 Q 351.5230629394531 256.2172139160156 351.5230629394531 257.7544139160156 Q 351.5230629394531 259.27331391601564 352.2367629394531 260.21576391601565 Q 352.95046293945313 261.1582139160156 354.0850629394531 261.1582139160156 Z M 360.5417376953125 262.1830139160156 L 360.5417376953125 253.28921391601563 L 361.7861376953125 253.28921391601563 L 361.9142376953125 254.57021391601563 L 361.9691376953125 254.57021391601563 Q 362.6096376953125 253.92971391601563 363.3233376953125 253.49966391601563 Q 364.0370376953125 253.0696139160156 364.9520376953125 253.0696139160156 Q 366.3611376953125 253.0696139160156 367.0107876953125 253.95716391601562 Q 367.6604376953125 254.84471391601562 367.6604376953125 256.54661391601564 L 367.6604376953125 262.1830139160156 L 366.1598376953125 262.1830139160156 L 366.1598376953125 256.74791391601565 Q 366.1598376953125 255.50351391601563 365.7572376953125 254.93621391601562 Q 365.3546376953125 254.36891391601563 364.4762376953125 254.36891391601563 Q 363.7991376953125 254.36891391601563 363.2592876953125 254.71661391601563 Q 362.7194376953125 255.06431391601564 362.0423376953125 255.74141391601563 L 362.0423376953125 262.1830139160156 Z" transform="matrix(1, 0, 0, 1, 0, 0)" style="fill: rgb(6, 6, 6); white-space: pre;"/>
</svg>